<svg xmlns="http://www.w3.org/2000/svg" xmlns:xlink="http://www.w3.org/1999/xlink" width="500" zoomAndPan="magnify" viewBox="0 0 375 374.999991" height="500" preserveAspectRatio="xMidYMid meet" version="1.0"><defs><clipPath id="3ba20d9597"><path d="M 127.914062 185.519531 L 187.164062 185.519531 L 187.164062 244.769531 L 127.914062 244.769531 Z M 127.914062 185.519531 " clip-rule="nonzero"/></clipPath><clipPath id="94e6f384ab"><path d="M 154.53125 243.707031 L 160.503906 243.707031 L 160.503906 237.054688 C 160.503906 236.800781 160.6875 236.582031 160.941406 236.542969 C 162.417969 236.308594 163.867188 235.917969 165.261719 235.386719 C 165.5 235.296875 165.769531 235.390625 165.894531 235.613281 L 169.222656 241.371094 L 174.394531 238.386719 L 171.066406 232.621094 C 170.9375 232.398438 170.988281 232.117188 171.1875 231.957031 C 172.34375 231.015625 173.410156 229.953125 174.347656 228.796875 C 174.507812 228.601562 174.789062 228.546875 175.011719 228.675781 L 180.773438 232.003906 L 183.761719 226.832031 L 178.003906 223.503906 C 177.78125 223.375 177.6875 223.109375 177.777344 222.867188 C 178.308594 221.476562 178.699219 220.023438 178.933594 218.550781 C 178.972656 218.300781 179.1875 218.113281 179.445312 218.113281 L 186.097656 218.113281 L 186.097656 212.140625 L 179.445312 212.140625 C 179.191406 212.140625 178.972656 211.953125 178.933594 211.703125 C 178.699219 210.226562 178.308594 208.773438 177.777344 207.382812 C 177.6875 207.144531 177.78125 206.875 178.003906 206.75 L 183.761719 203.421875 L 180.773438 198.25 L 175.011719 201.578125 C 174.789062 201.707031 174.507812 201.652344 174.347656 201.457031 C 173.40625 200.296875 172.34375 199.234375 171.1875 198.296875 C 170.992188 198.136719 170.9375 197.855469 171.066406 197.632812 L 174.394531 191.867188 L 169.222656 188.882812 L 165.894531 194.640625 C 165.765625 194.863281 165.496094 194.957031 165.257812 194.867188 C 163.867188 194.335938 162.414062 193.945312 160.941406 193.710938 C 160.6875 193.671875 160.503906 193.453125 160.503906 193.199219 L 160.503906 186.546875 L 154.53125 186.546875 L 154.53125 193.199219 C 154.53125 193.453125 154.34375 193.671875 154.089844 193.710938 C 152.617188 193.945312 151.167969 194.335938 149.773438 194.867188 C 149.535156 194.957031 149.265625 194.863281 149.136719 194.640625 L 145.8125 188.882812 L 140.640625 191.867188 L 143.96875 197.632812 C 144.09375 197.855469 144.042969 198.136719 143.847656 198.296875 C 142.6875 199.238281 141.625 200.300781 140.6875 201.457031 C 140.527344 201.652344 140.242188 201.707031 140.023438 201.578125 L 134.257812 198.25 L 131.273438 203.421875 L 137.03125 206.75 C 137.253906 206.875 137.347656 207.144531 137.257812 207.382812 C 136.722656 208.777344 136.335938 210.230469 136.101562 211.703125 C 136.0625 211.953125 135.84375 212.140625 135.589844 212.140625 L 128.9375 212.140625 L 128.9375 218.113281 L 135.589844 218.113281 C 135.84375 218.113281 136.0625 218.300781 136.101562 218.550781 C 136.335938 220.023438 136.722656 221.476562 137.257812 222.871094 C 137.347656 223.109375 137.25 223.378906 137.03125 223.503906 L 131.273438 226.832031 L 134.257812 232.003906 L 140.023438 228.675781 C 140.242188 228.546875 140.523438 228.601562 140.6875 228.796875 C 141.628906 229.953125 142.691406 231.019531 143.847656 231.957031 C 144.042969 232.117188 144.09375 232.398438 143.96875 232.621094 L 140.640625 238.386719 L 145.8125 241.371094 L 149.140625 235.613281 C 149.265625 235.390625 149.535156 235.296875 149.773438 235.386719 C 151.167969 235.917969 152.621094 236.308594 154.089844 236.542969 C 154.34375 236.582031 154.53125 236.800781 154.53125 237.054688 Z M 157.519531 199.953125 C 149.152344 199.953125 142.34375 206.761719 142.34375 215.128906 C 142.34375 223.492188 149.152344 230.300781 157.515625 230.300781 C 165.886719 230.300781 172.691406 223.492188 172.691406 215.128906 C 172.691406 206.761719 165.882812 199.953125 157.519531 199.953125 Z M 157.519531 231.339844 C 148.578125 231.339844 141.304688 224.066406 141.304688 215.128906 C 141.304688 206.1875 148.578125 198.914062 157.515625 198.914062 C 166.457031 198.914062 173.730469 206.1875 173.730469 215.128906 C 173.730469 224.066406 166.457031 231.339844 157.515625 231.339844 Z M 161.023438 244.746094 L 154.011719 244.746094 C 153.722656 244.746094 153.492188 244.515625 153.492188 244.226562 L 153.492188 237.492188 C 152.246094 237.269531 151.011719 236.941406 149.820312 236.511719 L 146.453125 242.34375 C 146.382812 242.460938 146.269531 242.546875 146.136719 242.585938 C 146.003906 242.621094 145.863281 242.601562 145.742188 242.53125 L 139.671875 239.027344 C 139.421875 238.882812 139.335938 238.5625 139.480469 238.316406 L 142.847656 232.480469 C 141.882812 231.664062 140.980469 230.761719 140.164062 229.796875 L 134.328125 233.164062 C 134.082031 233.308594 133.761719 233.222656 133.617188 232.972656 L 130.113281 226.898438 C 129.96875 226.652344 130.054688 226.335938 130.300781 226.191406 L 136.132812 222.824219 C 135.703125 221.632812 135.371094 220.402344 135.148438 219.152344 L 128.417969 219.152344 C 128.128906 219.152344 127.898438 218.921875 127.898438 218.632812 L 127.898438 211.621094 C 127.898438 211.332031 128.128906 211.101562 128.417969 211.101562 L 135.148438 211.101562 C 135.371094 209.855469 135.703125 208.621094 136.132812 207.429688 L 130.300781 204.0625 C 130.054688 203.917969 129.96875 203.601562 130.113281 203.351562 L 133.617188 197.28125 C 133.761719 197.03125 134.078125 196.945312 134.328125 197.089844 L 140.164062 200.457031 C 140.980469 199.492188 141.882812 198.589844 142.847656 197.773438 L 139.480469 191.9375 C 139.335938 191.6875 139.421875 191.371094 139.671875 191.226562 L 145.742188 187.722656 C 145.863281 187.652344 146.003906 187.632812 146.136719 187.667969 C 146.269531 187.707031 146.382812 187.792969 146.453125 187.910156 L 149.820312 193.742188 C 151.011719 193.3125 152.242188 192.984375 153.492188 192.761719 L 153.492188 186.027344 C 153.492188 185.738281 153.722656 185.507812 154.011719 185.507812 L 161.023438 185.507812 C 161.308594 185.507812 161.542969 185.738281 161.542969 186.027344 L 161.542969 192.761719 C 162.789062 192.984375 164.019531 193.3125 165.214844 193.742188 L 168.582031 187.910156 C 168.648438 187.792969 168.761719 187.707031 168.898438 187.667969 C 169.03125 187.632812 169.171875 187.652344 169.289062 187.722656 L 175.363281 191.226562 C 175.613281 191.371094 175.699219 191.691406 175.554688 191.9375 L 172.183594 197.773438 C 173.152344 198.589844 174.050781 199.492188 174.871094 200.457031 L 180.707031 197.089844 C 180.953125 196.945312 181.273438 197.03125 181.414062 197.28125 L 184.921875 203.351562 C 184.992188 203.472656 185.011719 203.613281 184.972656 203.746094 C 184.9375 203.878906 184.851562 203.996094 184.730469 204.0625 L 178.902344 207.429688 C 179.332031 208.621094 179.660156 209.851562 179.882812 211.101562 L 186.617188 211.101562 C 186.90625 211.101562 187.136719 211.332031 187.136719 211.621094 L 187.136719 218.632812 C 187.136719 218.921875 186.90625 219.152344 186.617188 219.152344 L 179.882812 219.152344 C 179.660156 220.398438 179.332031 221.632812 178.902344 222.824219 L 184.730469 226.191406 C 184.851562 226.257812 184.9375 226.371094 184.972656 226.507812 C 185.011719 226.640625 184.992188 226.78125 184.921875 226.902344 L 181.414062 232.972656 C 181.273438 233.222656 180.953125 233.308594 180.707031 233.164062 L 174.871094 229.796875 C 174.050781 230.761719 173.152344 231.664062 172.183594 232.480469 L 175.554688 238.316406 C 175.625 238.433594 175.640625 238.578125 175.605469 238.710938 C 175.570312 238.84375 175.484375 238.957031 175.363281 239.027344 L 169.289062 242.53125 C 169.171875 242.601562 169.03125 242.621094 168.898438 242.585938 C 168.761719 242.546875 168.648438 242.460938 168.582031 242.34375 L 165.214844 236.511719 C 164.023438 236.941406 162.792969 237.269531 161.542969 237.496094 L 161.542969 244.226562 C 161.542969 244.515625 161.308594 244.746094 161.023438 244.746094 Z M 161.023438 244.746094 " clip-rule="evenodd"/></clipPath><linearGradient x1="-5.561715" gradientTransform="matrix(0.387002, 0, 0, 0.387002, 123.965197, 181.574046)" y1="51.423644" x2="179.007001" gradientUnits="userSpaceOnUse" y2="121.992817" id="e0f34e9952"><stop stop-opacity="1" stop-color="rgb(95.698547%, 31.399536%, 36.499023%)" offset="0"/><stop stop-opacity="1" stop-color="rgb(95.664978%, 31.420898%, 36.58905%)" offset="0.03125"/><stop stop-opacity="1" stop-color="rgb(95.455933%, 31.555176%, 37.14447%)" offset="0.0351562"/><stop stop-opacity="1" stop-color="rgb(95.280457%, 31.669617%, 37.611389%)" offset="0.0390625"/><stop stop-opacity="1" stop-color="rgb(95.10498%, 31.782532%, 38.078308%)" offset="0.0429687"/><stop stop-opacity="1" stop-color="rgb(94.929504%, 31.896973%, 38.545227%)" offset="0.046875"/><stop stop-opacity="1" stop-color="rgb(94.754028%, 32.009888%, 39.012146%)" offset="0.0507812"/><stop stop-opacity="1" stop-color="rgb(94.578552%, 32.122803%, 39.479065%)" offset="0.0546875"/><stop stop-opacity="1" stop-color="rgb(94.403076%, 32.235718%, 39.945984%)" offset="0.0585937"/><stop stop-opacity="1" stop-color="rgb(94.2276%, 32.350159%, 40.412903%)" offset="0.0625"/><stop stop-opacity="1" stop-color="rgb(94.052124%, 32.463074%, 40.879822%)" offset="0.0664062"/><stop stop-opacity="1" stop-color="rgb(93.876648%, 32.575989%, 41.346741%)" offset="0.0703125"/><stop stop-opacity="1" stop-color="rgb(93.701172%, 32.688904%, 41.812134%)" offset="0.0742187"/><stop stop-opacity="1" stop-color="rgb(93.525696%, 32.803345%, 42.279053%)" offset="0.078125"/><stop stop-opacity="1" stop-color="rgb(93.35022%, 32.91626%, 42.745972%)" offset="0.0820312"/><stop stop-opacity="1" stop-color="rgb(93.17627%, 33.030701%, 43.212891%)" offset="0.0859375"/><stop stop-opacity="1" stop-color="rgb(93.000793%, 33.143616%, 43.67981%)" offset="0.0898438"/><stop stop-opacity="1" stop-color="rgb(92.825317%, 33.256531%, 44.146729%)" offset="0.09375"/><stop stop-opacity="1" stop-color="rgb(92.649841%, 33.369446%, 44.613647%)" offset="0.0976562"/><stop stop-opacity="1" stop-color="rgb(92.474365%, 33.483887%, 45.080566%)" offset="0.101562"/><stop stop-opacity="1" stop-color="rgb(92.298889%, 33.596802%, 45.547485%)" offset="0.105469"/><stop stop-opacity="1" stop-color="rgb(92.123413%, 33.709717%, 46.014404%)" offset="0.109375"/><stop stop-opacity="1" stop-color="rgb(91.947937%, 33.822632%, 46.479797%)" offset="0.113281"/><stop stop-opacity="1" stop-color="rgb(91.772461%, 33.937073%, 46.946716%)" offset="0.117187"/><stop stop-opacity="1" stop-color="rgb(91.596985%, 34.049988%, 47.413635%)" offset="0.121094"/><stop stop-opacity="1" stop-color="rgb(91.421509%, 34.164429%, 47.880554%)" offset="0.125"/><stop stop-opacity="1" stop-color="rgb(91.246033%, 34.277344%, 48.347473%)" offset="0.128906"/><stop stop-opacity="1" stop-color="rgb(91.070557%, 34.390259%, 48.814392%)" offset="0.132812"/><stop stop-opacity="1" stop-color="rgb(90.895081%, 34.503174%, 49.281311%)" offset="0.136719"/><stop stop-opacity="1" stop-color="rgb(90.719604%, 34.617615%, 49.74823%)" offset="0.140625"/><stop stop-opacity="1" stop-color="rgb(90.544128%, 34.73053%, 50.215149%)" offset="0.144531"/><stop stop-opacity="1" stop-color="rgb(90.368652%, 34.844971%, 50.682068%)" offset="0.148438"/><stop stop-opacity="1" stop-color="rgb(90.193176%, 34.957886%, 51.147461%)" offset="0.152344"/><stop stop-opacity="1" stop-color="rgb(90.0177%, 35.070801%, 51.61438%)" offset="0.15625"/><stop stop-opacity="1" stop-color="rgb(89.842224%, 35.183716%, 52.081299%)" offset="0.160156"/><stop stop-opacity="1" stop-color="rgb(89.666748%, 35.298157%, 52.548218%)" offset="0.164062"/><stop stop-opacity="1" stop-color="rgb(89.491272%, 35.411072%, 53.015137%)" offset="0.167969"/><stop stop-opacity="1" stop-color="rgb(89.315796%, 35.523987%, 53.482056%)" offset="0.171875"/><stop stop-opacity="1" stop-color="rgb(89.14032%, 35.636902%, 53.948975%)" offset="0.175781"/><stop stop-opacity="1" stop-color="rgb(88.964844%, 35.751343%, 54.415894%)" offset="0.179688"/><stop stop-opacity="1" stop-color="rgb(88.789368%, 35.864258%, 54.882812%)" offset="0.183594"/><stop stop-opacity="1" stop-color="rgb(88.613892%, 35.978699%, 55.349731%)" offset="0.1875"/><stop stop-opacity="1" stop-color="rgb(88.438416%, 36.091614%, 55.815125%)" offset="0.191406"/><stop stop-opacity="1" stop-color="rgb(88.262939%, 36.204529%, 56.282043%)" offset="0.195312"/><stop stop-opacity="1" stop-color="rgb(88.087463%, 36.317444%, 56.748962%)" offset="0.199219"/><stop stop-opacity="1" stop-color="rgb(87.911987%, 36.431885%, 57.215881%)" offset="0.203125"/><stop stop-opacity="1" stop-color="rgb(87.736511%, 36.5448%, 57.6828%)" offset="0.207031"/><stop stop-opacity="1" stop-color="rgb(87.561035%, 36.657715%, 58.149719%)" offset="0.210938"/><stop stop-opacity="1" stop-color="rgb(87.385559%, 36.77063%, 58.616638%)" offset="0.214844"/><stop stop-opacity="1" stop-color="rgb(87.210083%, 36.885071%, 59.083557%)" offset="0.21875"/><stop stop-opacity="1" stop-color="rgb(87.034607%, 36.997986%, 59.550476%)" offset="0.222656"/><stop stop-opacity="1" stop-color="rgb(86.859131%, 37.112427%, 60.017395%)" offset="0.226562"/><stop stop-opacity="1" stop-color="rgb(86.683655%, 37.225342%, 60.482788%)" offset="0.230469"/><stop stop-opacity="1" stop-color="rgb(86.508179%, 37.338257%, 60.949707%)" offset="0.234375"/><stop stop-opacity="1" stop-color="rgb(86.332703%, 37.451172%, 61.416626%)" offset="0.238281"/><stop stop-opacity="1" stop-color="rgb(86.157227%, 37.565613%, 61.883545%)" offset="0.242187"/><stop stop-opacity="1" stop-color="rgb(85.98175%, 37.678528%, 62.350464%)" offset="0.246094"/><stop stop-opacity="1" stop-color="rgb(85.806274%, 37.791443%, 62.817383%)" offset="0.25"/><stop stop-opacity="1" stop-color="rgb(85.630798%, 37.904358%, 63.284302%)" offset="0.253906"/><stop stop-opacity="1" stop-color="rgb(85.455322%, 38.018799%, 63.751221%)" offset="0.257812"/><stop stop-opacity="1" stop-color="rgb(85.279846%, 38.131714%, 64.21814%)" offset="0.261719"/><stop stop-opacity="1" stop-color="rgb(85.10437%, 38.246155%, 64.685059%)" offset="0.265625"/><stop stop-opacity="1" stop-color="rgb(84.928894%, 38.35907%, 65.150452%)" offset="0.269531"/><stop stop-opacity="1" stop-color="rgb(84.753418%, 38.471985%, 65.617371%)" offset="0.273437"/><stop stop-opacity="1" stop-color="rgb(84.577942%, 38.5849%, 66.08429%)" offset="0.277344"/><stop stop-opacity="1" stop-color="rgb(84.402466%, 38.699341%, 66.551208%)" offset="0.28125"/><stop stop-opacity="1" stop-color="rgb(84.22699%, 38.812256%, 67.018127%)" offset="0.285156"/><stop stop-opacity="1" stop-color="rgb(84.051514%, 38.925171%, 67.485046%)" offset="0.289062"/><stop stop-opacity="1" stop-color="rgb(83.876038%, 39.038086%, 67.951965%)" offset="0.292969"/><stop stop-opacity="1" stop-color="rgb(83.700562%, 39.152527%, 68.418884%)" offset="0.296875"/><stop stop-opacity="1" stop-color="rgb(83.525085%, 39.265442%, 68.885803%)" offset="0.300781"/><stop stop-opacity="1" stop-color="rgb(83.349609%, 39.379883%, 69.352722%)" offset="0.304687"/><stop stop-opacity="1" stop-color="rgb(83.174133%, 39.492798%, 69.818115%)" offset="0.308594"/><stop stop-opacity="1" stop-color="rgb(82.998657%, 39.605713%, 70.285034%)" offset="0.3125"/><stop stop-opacity="1" stop-color="rgb(82.823181%, 39.718628%, 70.751953%)" offset="0.316406"/><stop stop-opacity="1" stop-color="rgb(82.649231%, 39.833069%, 71.218872%)" offset="0.320312"/><stop stop-opacity="1" stop-color="rgb(82.473755%, 39.945984%, 71.685791%)" offset="0.324219"/><stop stop-opacity="1" stop-color="rgb(82.298279%, 40.060425%, 72.15271%)" offset="0.328125"/><stop stop-opacity="1" stop-color="rgb(82.122803%, 40.17334%, 72.619629%)" offset="0.332031"/><stop stop-opacity="1" stop-color="rgb(81.947327%, 40.286255%, 73.086548%)" offset="0.335937"/><stop stop-opacity="1" stop-color="rgb(81.771851%, 40.39917%, 73.553467%)" offset="0.339844"/><stop stop-opacity="1" stop-color="rgb(81.596375%, 40.513611%, 74.020386%)" offset="0.34375"/><stop stop-opacity="1" stop-color="rgb(81.420898%, 40.626526%, 74.485779%)" offset="0.347656"/><stop stop-opacity="1" stop-color="rgb(81.245422%, 40.739441%, 74.952698%)" offset="0.351562"/><stop stop-opacity="1" stop-color="rgb(81.069946%, 40.852356%, 75.419617%)" offset="0.355469"/><stop stop-opacity="1" stop-color="rgb(80.89447%, 40.966797%, 75.886536%)" offset="0.359375"/><stop stop-opacity="1" stop-color="rgb(80.718994%, 41.079712%, 76.353455%)" offset="0.363281"/><stop stop-opacity="1" stop-color="rgb(80.543518%, 41.194153%, 76.820374%)" offset="0.367187"/><stop stop-opacity="1" stop-color="rgb(80.368042%, 41.307068%, 77.287292%)" offset="0.371094"/><stop stop-opacity="1" stop-color="rgb(80.192566%, 41.419983%, 77.754211%)" offset="0.375"/><stop stop-opacity="1" stop-color="rgb(80.01709%, 41.532898%, 78.219604%)" offset="0.378906"/><stop stop-opacity="1" stop-color="rgb(79.841614%, 41.647339%, 78.686523%)" offset="0.382812"/><stop stop-opacity="1" stop-color="rgb(79.666138%, 41.760254%, 79.153442%)" offset="0.386719"/><stop stop-opacity="1" stop-color="rgb(79.490662%, 41.873169%, 79.620361%)" offset="0.390625"/><stop stop-opacity="1" stop-color="rgb(79.315186%, 41.986084%, 80.08728%)" offset="0.394531"/><stop stop-opacity="1" stop-color="rgb(79.139709%, 42.100525%, 80.554199%)" offset="0.398437"/><stop stop-opacity="1" stop-color="rgb(78.964233%, 42.21344%, 81.021118%)" offset="0.402344"/><stop stop-opacity="1" stop-color="rgb(78.788757%, 42.327881%, 81.488037%)" offset="0.40625"/><stop stop-opacity="1" stop-color="rgb(78.613281%, 42.440796%, 81.954956%)" offset="0.410156"/><stop stop-opacity="1" stop-color="rgb(78.437805%, 42.553711%, 82.421875%)" offset="0.414062"/><stop stop-opacity="1" stop-color="rgb(78.262329%, 42.666626%, 82.887268%)" offset="0.417969"/><stop stop-opacity="1" stop-color="rgb(78.086853%, 42.781067%, 83.354187%)" offset="0.421875"/><stop stop-opacity="1" stop-color="rgb(77.911377%, 42.893982%, 83.821106%)" offset="0.425781"/><stop stop-opacity="1" stop-color="rgb(77.735901%, 43.006897%, 84.288025%)" offset="0.429687"/><stop stop-opacity="1" stop-color="rgb(77.560425%, 43.119812%, 84.754944%)" offset="0.433594"/><stop stop-opacity="1" stop-color="rgb(77.384949%, 43.234253%, 85.221863%)" offset="0.4375"/><stop stop-opacity="1" stop-color="rgb(77.209473%, 43.347168%, 85.688782%)" offset="0.441406"/><stop stop-opacity="1" stop-color="rgb(77.033997%, 43.461609%, 86.155701%)" offset="0.445312"/><stop stop-opacity="1" stop-color="rgb(76.858521%, 43.574524%, 86.62262%)" offset="0.449219"/><stop stop-opacity="1" stop-color="rgb(76.683044%, 43.687439%, 87.089539%)" offset="0.453125"/><stop stop-opacity="1" stop-color="rgb(76.507568%, 43.800354%, 87.554932%)" offset="0.457031"/><stop stop-opacity="1" stop-color="rgb(76.332092%, 43.914795%, 88.021851%)" offset="0.460937"/><stop stop-opacity="1" stop-color="rgb(76.156616%, 44.02771%, 88.48877%)" offset="0.464844"/><stop stop-opacity="1" stop-color="rgb(75.98114%, 44.142151%, 88.955688%)" offset="0.46875"/><stop stop-opacity="1" stop-color="rgb(75.805664%, 44.255066%, 89.422607%)" offset="0.472656"/><stop stop-opacity="1" stop-color="rgb(75.630188%, 44.367981%, 89.889526%)" offset="0.476562"/><stop stop-opacity="1" stop-color="rgb(75.454712%, 44.480896%, 90.356445%)" offset="0.480469"/><stop stop-opacity="1" stop-color="rgb(75.279236%, 44.595337%, 90.823364%)" offset="0.484375"/><stop stop-opacity="1" stop-color="rgb(75.10376%, 44.708252%, 91.290283%)" offset="0.488281"/><stop stop-opacity="1" stop-color="rgb(74.928284%, 44.821167%, 91.757202%)" offset="0.492187"/><stop stop-opacity="1" stop-color="rgb(74.752808%, 44.934082%, 92.222595%)" offset="0.496094"/><stop stop-opacity="1" stop-color="rgb(74.577332%, 45.048523%, 92.689514%)" offset="0.5"/><stop stop-opacity="1" stop-color="rgb(74.108887%, 45.269775%, 92.784119%)" offset="0.503906"/><stop stop-opacity="1" stop-color="rgb(73.640442%, 45.491028%, 92.880249%)" offset="0.507812"/><stop stop-opacity="1" stop-color="rgb(73.086548%, 45.742798%, 92.866516%)" offset="0.511719"/><stop stop-opacity="1" stop-color="rgb(72.53418%, 45.994568%, 92.854309%)" offset="0.515625"/><stop stop-opacity="1" stop-color="rgb(71.980286%, 46.246338%, 92.842102%)" offset="0.519531"/><stop stop-opacity="1" stop-color="rgb(71.427917%, 46.498108%, 92.829895%)" offset="0.523437"/><stop stop-opacity="1" stop-color="rgb(70.874023%, 46.749878%, 92.817688%)" offset="0.527344"/><stop stop-opacity="1" stop-color="rgb(70.321655%, 47.001648%, 92.805481%)" offset="0.53125"/><stop stop-opacity="1" stop-color="rgb(69.767761%, 47.253418%, 92.791748%)" offset="0.535156"/><stop stop-opacity="1" stop-color="rgb(69.215393%, 47.505188%, 92.779541%)" offset="0.539062"/><stop stop-opacity="1" stop-color="rgb(68.661499%, 47.756958%, 92.767334%)" offset="0.542969"/><stop stop-opacity="1" stop-color="rgb(68.109131%, 48.010254%, 92.755127%)" offset="0.546875"/><stop stop-opacity="1" stop-color="rgb(67.555237%, 48.262024%, 92.741394%)" offset="0.550781"/><stop stop-opacity="1" stop-color="rgb(67.002869%, 48.513794%, 92.729187%)" offset="0.554687"/><stop stop-opacity="1" stop-color="rgb(66.448975%, 48.765564%, 92.71698%)" offset="0.558594"/><stop stop-opacity="1" stop-color="rgb(65.896606%, 49.017334%, 92.704773%)" offset="0.5625"/><stop stop-opacity="1" stop-color="rgb(65.344238%, 49.269104%, 92.692566%)" offset="0.566406"/><stop stop-opacity="1" stop-color="rgb(64.79187%, 49.520874%, 92.680359%)" offset="0.570312"/><stop stop-opacity="1" stop-color="rgb(64.237976%, 49.772644%, 92.666626%)" offset="0.574219"/><stop stop-opacity="1" stop-color="rgb(63.685608%, 50.02594%, 92.654419%)" offset="0.578125"/><stop stop-opacity="1" stop-color="rgb(63.131714%, 50.27771%, 92.642212%)" offset="0.582031"/><stop stop-opacity="1" stop-color="rgb(62.579346%, 50.52948%, 92.630005%)" offset="0.585937"/><stop stop-opacity="1" stop-color="rgb(62.025452%, 50.78125%, 92.616272%)" offset="0.589844"/><stop stop-opacity="1" stop-color="rgb(61.473083%, 51.03302%, 92.604065%)" offset="0.59375"/><stop stop-opacity="1" stop-color="rgb(60.919189%, 51.28479%, 92.591858%)" offset="0.597656"/><stop stop-opacity="1" stop-color="rgb(60.366821%, 51.53656%, 92.579651%)" offset="0.601562"/><stop stop-opacity="1" stop-color="rgb(59.812927%, 51.78833%, 92.565918%)" offset="0.605469"/><stop stop-opacity="1" stop-color="rgb(59.260559%, 52.0401%, 92.553711%)" offset="0.609375"/><stop stop-opacity="1" stop-color="rgb(58.706665%, 52.29187%, 92.541504%)" offset="0.613281"/><stop stop-opacity="1" stop-color="rgb(58.154297%, 52.545166%, 92.529297%)" offset="0.617187"/><stop stop-opacity="1" stop-color="rgb(57.600403%, 52.796936%, 92.51709%)" offset="0.621094"/><stop stop-opacity="1" stop-color="rgb(57.048035%, 53.048706%, 92.504883%)" offset="0.625"/><stop stop-opacity="1" stop-color="rgb(56.494141%, 53.300476%, 92.49115%)" offset="0.628906"/><stop stop-opacity="1" stop-color="rgb(55.941772%, 53.552246%, 92.478943%)" offset="0.632812"/><stop stop-opacity="1" stop-color="rgb(55.387878%, 53.804016%, 92.466736%)" offset="0.636719"/><stop stop-opacity="1" stop-color="rgb(54.83551%, 54.055786%, 92.454529%)" offset="0.640625"/><stop stop-opacity="1" stop-color="rgb(54.281616%, 54.307556%, 92.440796%)" offset="0.644531"/><stop stop-opacity="1" stop-color="rgb(53.729248%, 54.560852%, 92.428589%)" offset="0.648437"/><stop stop-opacity="1" stop-color="rgb(53.175354%, 54.812622%, 92.416382%)" offset="0.652344"/><stop stop-opacity="1" stop-color="rgb(52.622986%, 55.064392%, 92.404175%)" offset="0.65625"/><stop stop-opacity="1" stop-color="rgb(52.069092%, 55.316162%, 92.391968%)" offset="0.660156"/><stop stop-opacity="1" stop-color="rgb(51.516724%, 55.567932%, 92.379761%)" offset="0.664062"/><stop stop-opacity="1" stop-color="rgb(50.96283%, 55.819702%, 92.366028%)" offset="0.667969"/><stop stop-opacity="1" stop-color="rgb(50.410461%, 56.071472%, 92.353821%)" offset="0.671875"/><stop stop-opacity="1" stop-color="rgb(49.856567%, 56.323242%, 92.341614%)" offset="0.675781"/><stop stop-opacity="1" stop-color="rgb(49.304199%, 56.575012%, 92.329407%)" offset="0.679687"/><stop stop-opacity="1" stop-color="rgb(48.750305%, 56.826782%, 92.315674%)" offset="0.683594"/><stop stop-opacity="1" stop-color="rgb(48.197937%, 57.080078%, 92.303467%)" offset="0.6875"/><stop stop-opacity="1" stop-color="rgb(47.644043%, 57.331848%, 92.29126%)" offset="0.691406"/><stop stop-opacity="1" stop-color="rgb(47.091675%, 57.583618%, 92.279053%)" offset="0.695312"/><stop stop-opacity="1" stop-color="rgb(46.537781%, 57.835388%, 92.266846%)" offset="0.699219"/><stop stop-opacity="1" stop-color="rgb(45.985413%, 58.087158%, 92.254639%)" offset="0.703125"/><stop stop-opacity="1" stop-color="rgb(45.431519%, 58.338928%, 92.240906%)" offset="0.707031"/><stop stop-opacity="1" stop-color="rgb(44.87915%, 58.590698%, 92.228699%)" offset="0.710937"/><stop stop-opacity="1" stop-color="rgb(44.325256%, 58.842468%, 92.216492%)" offset="0.714844"/><stop stop-opacity="1" stop-color="rgb(43.772888%, 59.095764%, 92.204285%)" offset="0.71875"/><stop stop-opacity="1" stop-color="rgb(43.218994%, 59.347534%, 92.190552%)" offset="0.722656"/><stop stop-opacity="1" stop-color="rgb(42.666626%, 59.599304%, 92.178345%)" offset="0.726562"/><stop stop-opacity="1" stop-color="rgb(42.112732%, 59.851074%, 92.166138%)" offset="0.730469"/><stop stop-opacity="1" stop-color="rgb(41.560364%, 60.102844%, 92.153931%)" offset="0.734375"/><stop stop-opacity="1" stop-color="rgb(41.00647%, 60.354614%, 92.141724%)" offset="0.738281"/><stop stop-opacity="1" stop-color="rgb(40.454102%, 60.606384%, 92.129517%)" offset="0.742187"/><stop stop-opacity="1" stop-color="rgb(39.900208%, 60.858154%, 92.115784%)" offset="0.746094"/><stop stop-opacity="1" stop-color="rgb(39.347839%, 61.109924%, 92.103577%)" offset="0.75"/><stop stop-opacity="1" stop-color="rgb(38.793945%, 61.361694%, 92.09137%)" offset="0.753906"/><stop stop-opacity="1" stop-color="rgb(38.241577%, 61.61499%, 92.079163%)" offset="0.757812"/><stop stop-opacity="1" stop-color="rgb(37.687683%, 61.86676%, 92.06543%)" offset="0.761719"/><stop stop-opacity="1" stop-color="rgb(37.135315%, 62.11853%, 92.053223%)" offset="0.765625"/><stop stop-opacity="1" stop-color="rgb(36.582947%, 62.3703%, 92.041016%)" offset="0.769531"/><stop stop-opacity="1" stop-color="rgb(36.030579%, 62.62207%, 92.028809%)" offset="0.773437"/><stop stop-opacity="1" stop-color="rgb(35.476685%, 62.87384%, 92.016602%)" offset="0.777344"/><stop stop-opacity="1" stop-color="rgb(34.924316%, 63.12561%, 92.004395%)" offset="0.78125"/><stop stop-opacity="1" stop-color="rgb(34.370422%, 63.37738%, 91.990662%)" offset="0.785156"/><stop stop-opacity="1" stop-color="rgb(33.818054%, 63.630676%, 91.978455%)" offset="0.789062"/><stop stop-opacity="1" stop-color="rgb(33.26416%, 63.882446%, 91.966248%)" offset="0.792969"/><stop stop-opacity="1" stop-color="rgb(32.711792%, 64.134216%, 91.954041%)" offset="0.796875"/><stop stop-opacity="1" stop-color="rgb(32.157898%, 64.385986%, 91.940308%)" offset="0.800781"/><stop stop-opacity="1" stop-color="rgb(31.60553%, 64.637756%, 91.928101%)" offset="0.804687"/><stop stop-opacity="1" stop-color="rgb(31.051636%, 64.889526%, 91.915894%)" offset="0.808594"/><stop stop-opacity="1" stop-color="rgb(30.499268%, 65.141296%, 91.903687%)" offset="0.8125"/><stop stop-opacity="1" stop-color="rgb(29.945374%, 65.393066%, 91.891479%)" offset="0.816406"/><stop stop-opacity="1" stop-color="rgb(29.393005%, 65.644836%, 91.879272%)" offset="0.820312"/><stop stop-opacity="1" stop-color="rgb(28.839111%, 65.896606%, 91.86554%)" offset="0.824219"/><stop stop-opacity="1" stop-color="rgb(28.286743%, 66.149902%, 91.853333%)" offset="0.828125"/><stop stop-opacity="1" stop-color="rgb(27.732849%, 66.401672%, 91.841125%)" offset="0.832031"/><stop stop-opacity="1" stop-color="rgb(27.180481%, 66.653442%, 91.828918%)" offset="0.835937"/><stop stop-opacity="1" stop-color="rgb(26.626587%, 66.905212%, 91.815186%)" offset="0.839844"/><stop stop-opacity="1" stop-color="rgb(26.074219%, 67.156982%, 91.802979%)" offset="0.84375"/><stop stop-opacity="1" stop-color="rgb(25.520325%, 67.408752%, 91.790771%)" offset="0.847656"/><stop stop-opacity="1" stop-color="rgb(24.967957%, 67.660522%, 91.778564%)" offset="0.851562"/><stop stop-opacity="1" stop-color="rgb(24.414062%, 67.912292%, 91.766357%)" offset="0.855469"/><stop stop-opacity="1" stop-color="rgb(23.861694%, 68.165588%, 91.75415%)" offset="0.859375"/><stop stop-opacity="1" stop-color="rgb(23.3078%, 68.417358%, 91.740417%)" offset="0.863281"/><stop stop-opacity="1" stop-color="rgb(22.755432%, 68.669128%, 91.72821%)" offset="0.867187"/><stop stop-opacity="1" stop-color="rgb(22.201538%, 68.920898%, 91.716003%)" offset="0.871094"/><stop stop-opacity="1" stop-color="rgb(21.64917%, 69.172668%, 91.703796%)" offset="0.875"/><stop stop-opacity="1" stop-color="rgb(21.095276%, 69.424438%, 91.690063%)" offset="0.878906"/><stop stop-opacity="1" stop-color="rgb(20.542908%, 69.676208%, 91.677856%)" offset="0.882812"/><stop stop-opacity="1" stop-color="rgb(19.989014%, 69.927979%, 91.665649%)" offset="0.886719"/><stop stop-opacity="1" stop-color="rgb(19.436646%, 70.179749%, 91.653442%)" offset="0.890625"/><stop stop-opacity="1" stop-color="rgb(18.882751%, 70.431519%, 91.641235%)" offset="0.894531"/><stop stop-opacity="1" stop-color="rgb(18.330383%, 70.684814%, 91.629028%)" offset="0.898437"/><stop stop-opacity="1" stop-color="rgb(17.776489%, 70.936584%, 91.615295%)" offset="0.902344"/><stop stop-opacity="1" stop-color="rgb(17.224121%, 71.188354%, 91.603088%)" offset="0.90625"/><stop stop-opacity="1" stop-color="rgb(16.670227%, 71.440125%, 91.590881%)" offset="0.910156"/><stop stop-opacity="1" stop-color="rgb(16.117859%, 71.691895%, 91.578674%)" offset="0.914062"/><stop stop-opacity="1" stop-color="rgb(15.563965%, 71.943665%, 91.564941%)" offset="0.917969"/><stop stop-opacity="1" stop-color="rgb(15.011597%, 72.195435%, 91.552734%)" offset="0.921875"/><stop stop-opacity="1" stop-color="rgb(14.457703%, 72.447205%, 91.540527%)" offset="0.925781"/><stop stop-opacity="1" stop-color="rgb(13.905334%, 72.7005%, 91.52832%)" offset="0.929687"/><stop stop-opacity="1" stop-color="rgb(13.35144%, 72.952271%, 91.516113%)" offset="0.933594"/><stop stop-opacity="1" stop-color="rgb(12.799072%, 73.204041%, 91.503906%)" offset="0.9375"/><stop stop-opacity="1" stop-color="rgb(12.245178%, 73.455811%, 91.490173%)" offset="0.941406"/><stop stop-opacity="1" stop-color="rgb(11.69281%, 73.707581%, 91.477966%)" offset="0.945312"/><stop stop-opacity="1" stop-color="rgb(11.138916%, 73.959351%, 91.465759%)" offset="0.949219"/><stop stop-opacity="1" stop-color="rgb(10.586548%, 74.211121%, 91.453552%)" offset="0.953125"/><stop stop-opacity="1" stop-color="rgb(10.032654%, 74.462891%, 91.439819%)" offset="0.957031"/><stop stop-opacity="1" stop-color="rgb(9.480286%, 74.714661%, 91.427612%)" offset="0.960938"/><stop stop-opacity="1" stop-color="rgb(8.926392%, 74.966431%, 91.415405%)" offset="0.964844"/><stop stop-opacity="1" stop-color="rgb(8.374023%, 75.219727%, 91.403198%)" offset="0.96875"/><stop stop-opacity="1" stop-color="rgb(8.285522%, 75.259399%, 91.400146%)" offset="1"/></linearGradient><clipPath id="779059c3f3"><path d="M 191 354 L 230 354 L 230 357.019531 L 191 357.019531 Z M 191 354 " clip-rule="nonzero"/></clipPath><clipPath id="d97d3115e7"><path d="M 252 354 L 292 354 L 292 357.019531 L 252 357.019531 Z M 252 354 " clip-rule="nonzero"/></clipPath><clipPath id="590d95da4c"><path d="M 37.5 261.066406 L 67.5 261.066406 L 67.5 288.066406 L 37.5 288.066406 Z M 37.5 261.066406 " clip-rule="nonzero"/></clipPath><clipPath id="862a7dd762"><path d="M 66 215.316406 L 122 215.316406 L 122 271 L 66 271 Z M 66 215.316406 " clip-rule="nonzero"/></clipPath><clipPath id="51c2fdc15f"><path d="M 57.785156 251 L 129.785156 251 L 129.785156 306.816406 L 57.785156 306.816406 Z M 57.785156 251 " clip-rule="nonzero"/></clipPath><clipPath id="c0ed42285b"><path d="M 301.09375 37.5 L 337.511719 37.5 L 337.511719 75.691406 L 301.09375 75.691406 Z M 301.09375 37.5 " clip-rule="nonzero"/></clipPath><clipPath id="9d8ddb1577"><path d="M 335.019531 75.617188 L 303.570312 75.617188 C 302.203125 75.617188 301.09375 74.503906 301.09375 73.136719 L 301.09375 39.980469 C 301.09375 38.613281 302.203125 37.5 303.570312 37.5 L 335.019531 37.5 C 336.386719 37.5 337.5 38.613281 337.5 39.980469 L 337.5 73.136719 C 337.5 74.503906 336.386719 75.617188 335.019531 75.617188 " clip-rule="nonzero"/></clipPath><clipPath id="5a25a06f32"><path d="M 307.113281 47.882812 L 331.539062 47.882812 L 331.539062 53.902344 L 307.113281 53.902344 Z M 307.113281 47.882812 " clip-rule="nonzero"/></clipPath><clipPath id="c90dd634d4"><path d="M 330.34375 53.902344 L 308.246094 53.902344 C 307.621094 53.902344 307.113281 53.390625 307.113281 52.765625 L 307.113281 49.015625 C 307.113281 48.390625 307.621094 47.882812 308.246094 47.882812 L 330.34375 47.882812 C 330.96875 47.882812 331.480469 48.390625 331.480469 49.015625 L 331.480469 52.765625 C 331.480469 53.390625 330.96875 53.902344 330.34375 53.902344 " clip-rule="nonzero"/></clipPath><clipPath id="834c77e650"><path d="M 307.113281 59.917969 L 331.539062 59.917969 L 331.539062 65.9375 L 307.113281 65.9375 Z M 307.113281 59.917969 " clip-rule="nonzero"/></clipPath><clipPath id="9cb4d532ba"><path d="M 330.34375 65.9375 L 308.246094 65.9375 C 307.621094 65.9375 307.113281 65.429688 307.113281 64.804688 L 307.113281 61.050781 C 307.113281 60.425781 307.621094 59.917969 308.246094 59.917969 L 330.34375 59.917969 C 330.96875 59.917969 331.480469 60.425781 331.480469 61.050781 L 331.480469 64.804688 C 331.480469 65.429688 330.96875 65.9375 330.34375 65.9375 " clip-rule="nonzero"/></clipPath><clipPath id="299c6c3d8e"><path d="M 44.765625 111.640625 L 127.832031 111.640625 L 127.832031 179.140625 L 44.765625 179.140625 Z M 44.765625 111.640625 " clip-rule="nonzero"/></clipPath></defs><g clip-path="url(#3ba20d9597)"><g clip-path="url(#94e6f384ab)"><path fill="url(#e0f34e9952)" d="M 127.914062 185.519531 L 127.914062 244.746094 L 187.136719 244.746094 L 187.136719 185.519531 Z M 127.914062 185.519531 " fill-rule="nonzero"/></g></g><path fill="#e6e6ff" d="M 116.09375 222.308594 C 154.34375 191.132812 210.183594 256.050781 176.292969 286.011719 C 142.398438 315.972656 129.929688 331.4375 107.238281 306.726562 C 84.546875 282.015625 93.773438 240.503906 116.09375 222.308594 Z M 116.09375 222.308594 " fill-opacity="1" fill-rule="nonzero"/><path fill="#e6e6ff" d="M 73.335938 102.8125 C 57.886719 178.699219 157.933594 138.296875 193.550781 193.199219 C 229.167969 248.105469 232.921875 340.675781 292.769531 317.960938 C 352.617188 295.242188 370.4375 136.851562 318.703125 89.308594 C 270.640625 45.136719 87.296875 34.21875 73.335938 102.8125 Z M 73.335938 102.8125 " fill-opacity="1" fill-rule="nonzero"/><path fill="#000048" d="M 208.6875 129.917969 L 194.679688 143.578125 L 151.460938 107.820312 L 158.800781 97.210938 L 192.234375 118.3125 L 208.9375 85.503906 Z M 208.6875 129.917969 " fill-opacity="1" fill-rule="nonzero"/><path fill="#ffb2a3" d="M 155.316406 89.273438 L 146.9375 85.503906 L 137.261719 88.507812 L 136.796875 90.484375 L 146.375 88.558594 L 150.683594 91.390625 L 144.003906 92.054688 L 138.789062 97.8125 L 149.199219 102.851562 L 152.925781 105.71875 L 158.535156 97.375 Z M 155.316406 89.273438 " fill-opacity="1" fill-rule="nonzero"/><path fill="#ff8099" d="M 139.679688 97.050781 L 186.253906 97.050781 C 186.429688 97.050781 186.601562 97.082031 186.765625 97.152344 C 186.933594 97.21875 187.078125 97.316406 187.203125 97.445312 C 187.328125 97.570312 187.425781 97.714844 187.496094 97.878906 C 187.5625 98.046875 187.597656 98.21875 187.597656 98.394531 L 187.597656 98.699219 C 187.597656 98.875 187.5625 99.046875 187.496094 99.214844 C 187.425781 99.378906 187.328125 99.523438 187.203125 99.648438 C 187.078125 99.777344 186.933594 99.875 186.765625 99.941406 C 186.601562 100.011719 186.429688 100.042969 186.253906 100.042969 L 139.679688 100.042969 C 139.5 100.042969 139.328125 100.011719 139.164062 99.941406 C 139 99.875 138.855469 99.777344 138.726562 99.648438 C 138.601562 99.523438 138.503906 99.378906 138.4375 99.214844 C 138.367188 99.046875 138.332031 98.875 138.332031 98.699219 L 138.332031 98.394531 C 138.332031 98.21875 138.367188 98.046875 138.4375 97.878906 C 138.503906 97.714844 138.601562 97.570312 138.726562 97.445312 C 138.855469 97.316406 139 97.21875 139.164062 97.152344 C 139.328125 97.082031 139.5 97.050781 139.679688 97.050781 Z M 139.679688 97.050781 " fill-opacity="1" fill-rule="nonzero"/><path fill="#ff355b" d="M 134.441406 98.796875 L 198.828125 98.796875 C 199.007812 98.796875 199.179688 98.832031 199.34375 98.898438 C 199.507812 98.96875 199.652344 99.066406 199.78125 99.191406 C 199.90625 99.316406 200.003906 99.464844 200.070312 99.628906 C 200.140625 99.792969 200.171875 99.964844 200.171875 100.144531 L 200.171875 100.445312 C 200.171875 100.625 200.140625 100.796875 200.070312 100.960938 C 200.003906 101.125 199.90625 101.273438 199.78125 101.398438 C 199.652344 101.523438 199.507812 101.621094 199.34375 101.691406 C 199.179688 101.757812 199.007812 101.792969 198.828125 101.792969 L 134.441406 101.792969 C 134.261719 101.792969 134.089844 101.757812 133.925781 101.691406 C 133.761719 101.621094 133.617188 101.523438 133.492188 101.398438 C 133.363281 101.273438 133.265625 101.125 133.199219 100.960938 C 133.128906 100.796875 133.097656 100.625 133.097656 100.445312 L 133.097656 100.144531 C 133.097656 99.964844 133.128906 99.792969 133.199219 99.628906 C 133.265625 99.464844 133.363281 99.316406 133.492188 99.191406 C 133.617188 99.066406 133.761719 98.96875 133.925781 98.898438 C 134.089844 98.832031 134.261719 98.796875 134.441406 98.796875 Z M 134.441406 98.796875 " fill-opacity="1" fill-rule="nonzero"/><path fill="#ff355b" d="M 101.808594 41.210938 L 134.003906 97.042969 C 134.09375 97.195312 134.148438 97.363281 134.171875 97.539062 C 134.195312 97.71875 134.183594 97.890625 134.136719 98.066406 C 134.089844 98.238281 134.015625 98.394531 133.90625 98.535156 C 133.796875 98.675781 133.664062 98.792969 133.511719 98.882812 L 132.21875 99.628906 C 132.066406 99.71875 131.898438 99.773438 131.722656 99.796875 C 131.546875 99.820312 131.371094 99.808594 131.199219 99.761719 C 131.027344 99.71875 130.871094 99.640625 130.726562 99.53125 C 130.585938 99.421875 130.472656 99.289062 130.382812 99.136719 L 98.1875 43.300781 C 98.097656 43.148438 98.042969 42.980469 98.019531 42.804688 C 97.996094 42.628906 98.007812 42.453125 98.054688 42.28125 C 98.101562 42.109375 98.175781 41.949219 98.285156 41.808594 C 98.394531 41.667969 98.527344 41.550781 98.679688 41.460938 L 99.972656 40.714844 C 100.125 40.625 100.292969 40.570312 100.46875 40.546875 C 100.644531 40.523438 100.820312 40.535156 100.992188 40.582031 C 101.164062 40.628906 101.320312 40.707031 101.464844 40.8125 C 101.605469 40.921875 101.71875 41.054688 101.808594 41.210938 Z M 101.808594 41.210938 " fill-opacity="1" fill-rule="nonzero"/><path fill="#ffbc6c" d="M 217.347656 79.371094 L 246.660156 79.371094 L 247.882812 199.125 L 213.472656 197.460938 Z M 217.347656 79.371094 " fill-opacity="1" fill-rule="nonzero"/><path fill="#000048" d="M 246.554688 191.679688 L 226.097656 341.664062 L 213.382812 341.664062 L 210.722656 191.679688 Z M 246.554688 191.679688 " fill-opacity="1" fill-rule="nonzero"/><path fill="#010163" d="M 225.714844 191.679688 L 274.433594 341.664062 L 287.148438 341.664062 L 267.5 191.679688 Z M 225.714844 191.679688 " fill-opacity="1" fill-rule="nonzero"/><path fill="#ffb2a3" d="M 239.945312 57.164062 C 239.832031 57.136719 239.71875 57.101562 239.609375 57.058594 C 239.050781 59.941406 238.03125 64.042969 234.8125 67.394531 C 232.273438 70.042969 228.363281 72.21875 222.238281 72.953125 C 221.699219 72.789062 221.167969 72.589844 220.652344 72.359375 C 211.453125 68.261719 209.976562 55.5625 209.871094 45.261719 C 209.851562 43.214844 209.882812 41.265625 209.921875 39.496094 C 230.15625 40.996094 238.757812 29.507812 237.136719 56.039062 C 241.003906 52.042969 239.007812 46.046875 241.191406 43.992188 C 248.453125 42.035156 245.054688 58.398438 239.945312 57.164062 Z M 239.945312 57.164062 " fill-opacity="1" fill-rule="nonzero"/><path fill="#ff8099" d="M 239.945312 57.164062 L 239.945312 77.074219 C 239.582031 77.644531 238.238281 78.914062 236.3125 80.105469 C 232.476562 82.476562 226.339844 84.550781 221.03125 80.230469 L 221.050781 72.519531 C 221.4375 72.695312 221.832031 72.839844 222.242188 72.949219 C 228.367188 72.214844 232.277344 70.039062 234.816406 67.390625 C 234.839844 67.367188 234.863281 67.34375 234.882812 67.320312 L 235.015625 67.179688 C 235.0625 67.132812 235.105469 67.082031 235.144531 67.035156 C 235.1875 66.988281 235.234375 66.941406 235.273438 66.890625 C 235.441406 66.703125 235.605469 66.507812 235.757812 66.3125 C 235.8125 66.242188 235.871094 66.171875 235.925781 66.101562 C 236.023438 65.976562 236.113281 65.847656 236.207031 65.722656 C 236.273438 65.628906 236.339844 65.53125 236.40625 65.4375 C 236.414062 65.425781 236.421875 65.414062 236.429688 65.402344 C 236.496094 65.308594 236.554688 65.214844 236.617188 65.125 C 236.675781 65.03125 236.746094 64.925781 236.808594 64.824219 C 236.855469 64.75 236.902344 64.671875 236.945312 64.597656 L 236.996094 64.515625 C 237.054688 64.417969 237.109375 64.316406 237.167969 64.21875 C 237.226562 64.117188 237.28125 64.019531 237.332031 63.917969 C 237.332031 63.917969 237.332031 63.914062 237.332031 63.914062 C 237.390625 63.808594 237.445312 63.710938 237.492188 63.609375 C 237.542969 63.507812 237.597656 63.40625 237.648438 63.300781 C 237.714844 63.164062 237.777344 63.03125 237.84375 62.894531 L 237.933594 62.691406 C 237.980469 62.589844 238.023438 62.488281 238.066406 62.386719 C 238.109375 62.285156 238.160156 62.164062 238.207031 62.050781 C 238.253906 61.9375 238.296875 61.828125 238.339844 61.714844 C 238.390625 61.585938 238.4375 61.453125 238.484375 61.324219 C 238.519531 61.230469 238.550781 61.136719 238.582031 61.046875 C 238.613281 60.953125 238.652344 60.839844 238.6875 60.734375 C 238.796875 60.398438 238.898438 60.066406 238.988281 59.738281 C 239.015625 59.636719 239.042969 59.535156 239.070312 59.4375 C 239.09375 59.34375 239.121094 59.25 239.144531 59.15625 C 239.167969 59.0625 239.191406 58.980469 239.210938 58.890625 C 239.308594 58.496094 239.394531 58.105469 239.472656 57.742188 C 239.496094 57.628906 239.519531 57.519531 239.539062 57.40625 C 239.5625 57.292969 239.585938 57.171875 239.609375 57.0625 C 239.71875 57.101562 239.832031 57.136719 239.945312 57.164062 Z M 239.945312 57.164062 " fill-opacity="1" fill-rule="nonzero"/><path fill="#000048" d="M 241.191406 43.992188 C 239.011719 46.050781 241.003906 52.042969 237.140625 56.039062 C 238.761719 29.507812 230.160156 40.996094 209.925781 39.496094 C 209.886719 41.265625 209.855469 43.214844 209.875 45.261719 C 201.523438 36.242188 204.484375 18.019531 218 20.519531 C 232.839844 23.265625 249.492188 29.648438 249.671875 41.367188 C 249.847656 52.980469 241.816406 64.589844 239.945312 69.917969 L 239.945312 57.164062 C 245.054688 58.398438 248.453125 42.035156 241.191406 43.992188 Z M 241.191406 43.992188 " fill-opacity="1" fill-rule="nonzero"/><path fill="#7473ff" d="M 191.582031 354.960938 L 229.921875 354.960938 L 225.992188 341.664062 L 213.277344 341.664062 Z M 191.582031 354.960938 " fill-opacity="1" fill-rule="nonzero"/><g clip-path="url(#779059c3f3)"><path fill="#fea531" d="M 191.582031 354.960938 L 229.917969 354.960938 L 229.917969 357.019531 L 191.582031 357.019531 Z M 191.582031 354.960938 " fill-opacity="1" fill-rule="nonzero"/></g><path fill="#7473ff" d="M 252.878906 354.960938 L 291.214844 354.960938 L 287.289062 341.664062 L 274.570312 341.664062 Z M 252.878906 354.960938 " fill-opacity="1" fill-rule="nonzero"/><g clip-path="url(#d97d3115e7)"><path fill="#fea531" d="M 252.878906 354.960938 L 291.214844 354.960938 L 291.214844 357.019531 L 252.878906 357.019531 Z M 252.878906 354.960938 " fill-opacity="1" fill-rule="nonzero"/></g><path fill="#7473ff" d="M 270.726562 202.917969 L 236.3125 202.917969 L 236.3125 80.113281 C 238.238281 78.921875 238.671875 77.476562 239.035156 76.90625 L 239.945312 72.984375 L 261.71875 80.984375 C 262.320312 81.207031 262.90625 81.472656 263.46875 81.78125 C 264.027344 82.089844 264.566406 82.441406 265.074219 82.832031 C 265.582031 83.226562 266.058594 83.652344 266.503906 84.117188 C 266.949219 84.582031 267.355469 85.074219 267.726562 85.601562 C 268.09375 86.128906 268.421875 86.675781 268.707031 87.253906 C 268.992188 87.828125 269.234375 88.421875 269.429688 89.035156 C 269.625 89.648438 269.773438 90.269531 269.875 90.90625 C 269.976562 91.539062 270.027344 92.179688 270.03125 92.820312 Z M 270.726562 202.917969 " fill-opacity="1" fill-rule="nonzero"/><path fill="#7473ff" d="M 221.03125 202.917969 L 208.6875 202.917969 L 208.957031 85.511719 L 221.03125 75.578125 Z M 221.03125 202.917969 " fill-opacity="1" fill-rule="nonzero"/><path fill="#010163" d="M 266.382812 111.28125 L 227.820312 151.105469 L 180.558594 117.207031 L 188.25 106.195312 L 226.097656 125.359375 L 251.542969 80.355469 C 251.542969 80.355469 276.726562 76.574219 266.382812 111.28125 Z M 266.382812 111.28125 " fill-opacity="1" fill-rule="nonzero"/><path fill="#ffb2a3" d="M 186.019531 99.972656 L 184.691406 90.503906 L 179.199219 86.757812 L 178.457031 88.644531 L 181.265625 93.484375 L 179.1875 101.738281 L 160.402344 101.890625 L 168.570312 107.417969 L 178.335938 112.148438 L 182.0625 115.015625 L 187.671875 106.667969 Z M 186.019531 99.972656 " fill-opacity="1" fill-rule="nonzero"/><path fill="#010163" d="M 236.3125 137.28125 L 245.738281 105.707031 L 236.3125 80.355469 Z M 236.3125 137.28125 " fill-opacity="1" fill-rule="nonzero"/><path fill="#010163" d="M 221.03125 137.28125 L 211.601562 105.707031 L 221.03125 80.355469 Z M 221.03125 137.28125 " fill-opacity="1" fill-rule="nonzero"/><g clip-path="url(#590d95da4c)"><path fill="#e6e6ff" d="M 53.933594 261.0625 C 60.691406 261.0625 67.5 265.023438 67.5 271.746094 C 67.5 280.015625 62.246094 288.0625 53.933594 288.0625 C 44.863281 288.0625 37.5 280.765625 37.5 271.746094 C 37.5 264.121094 46.265625 261.0625 53.933594 261.0625 Z M 53.933594 261.0625 " fill-opacity="1" fill-rule="evenodd"/></g><g clip-path="url(#862a7dd762)"><path fill="#aab8c2" d="M 93.785156 215.351562 C 78.488281 215.351562 66.09375 227.753906 66.09375 243.054688 L 66.09375 270.761719 L 77.167969 270.761719 L 77.167969 243.054688 C 77.167969 233.878906 84.605469 226.433594 93.785156 226.433594 C 102.960938 226.433594 110.398438 233.878906 110.398438 243.054688 L 110.398438 270.761719 L 121.476562 270.761719 L 121.476562 243.054688 C 121.476562 227.753906 109.078125 215.351562 93.785156 215.351562 Z M 93.785156 215.351562 " fill-opacity="1" fill-rule="nonzero"/></g><g clip-path="url(#51c2fdc15f)"><path fill="#ffac33" d="M 129.785156 295.699219 C 129.785156 301.816406 124.824219 306.78125 118.707031 306.78125 L 68.859375 306.78125 C 62.742188 306.78125 57.785156 301.816406 57.785156 295.699219 L 57.785156 262.449219 C 57.785156 256.332031 62.742188 251.367188 68.859375 251.367188 L 118.707031 251.367188 C 124.824219 251.367188 129.785156 256.332031 129.785156 262.449219 Z M 129.785156 295.699219 " fill-opacity="1" fill-rule="nonzero"/></g><g clip-path="url(#c0ed42285b)"><g clip-path="url(#9d8ddb1577)"><path fill="#383838" d="M 301.09375 37.5 L 337.511719 37.5 L 337.511719 75.691406 L 301.09375 75.691406 Z M 301.09375 37.5 " fill-opacity="1" fill-rule="nonzero"/></g></g><g clip-path="url(#5a25a06f32)"><g clip-path="url(#c90dd634d4)"><path fill="#ffdf00" d="M 307.113281 47.882812 L 331.421875 47.882812 L 331.421875 53.902344 L 307.113281 53.902344 Z M 307.113281 47.882812 " fill-opacity="1" fill-rule="nonzero"/></g></g><g clip-path="url(#834c77e650)"><g clip-path="url(#9cb4d532ba)"><path fill="#c0c0c0" d="M 307.113281 59.917969 L 331.421875 59.917969 L 331.421875 65.9375 L 307.113281 65.9375 Z M 307.113281 59.917969 " fill-opacity="1" fill-rule="nonzero"/></g></g><g clip-path="url(#299c6c3d8e)"><path fill="#3853a1" d="M 125.480469 127.320312 C 125.15625 127.863281 123.925781 129.761719 123.09375 130.945312 L 91.984375 175.183594 C 90.710938 176.992188 87.78125 178.296875 85.582031 178.027344 L 56.597656 174.484375 C 56.570312 174.480469 53.824219 174.210938 49.667969 173.636719 C 47.511719 173.339844 46.574219 171.394531 46.167969 169.8125 C 46.613281 170.0625 47.148438 170.230469 47.761719 170.304688 L 83.6875 174.695312 C 83.921875 174.722656 84.167969 174.738281 84.421875 174.738281 C 86.933594 174.738281 89.746094 173.335938 91.105469 171.402344 L 126.507812 121.054688 C 126.554688 120.988281 126.601562 120.917969 126.648438 120.847656 C 126.855469 122.617188 126.804688 125.121094 125.480469 127.320312 Z M 127.199219 118.214844 C 127.164062 118.082031 127.117188 117.953125 127.0625 117.824219 C 126.632812 116.863281 125.648438 116.238281 124.285156 116.074219 L 88.363281 111.683594 C 88.125 111.65625 87.878906 111.640625 87.628906 111.640625 C 85.113281 111.640625 82.304688 113.042969 80.941406 114.976562 L 45.539062 165.320312 C 44.960938 166.144531 44.703125 166.984375 44.777344 167.753906 C 44.8125 169.964844 45.839844 174.195312 49.519531 174.703125 C 53.699219 175.28125 56.464844 175.554688 56.480469 175.554688 L 85.449219 179.097656 C 85.6875 179.125 85.925781 179.140625 86.175781 179.140625 C 88.632812 179.136719 91.507812 177.742188 92.871094 175.800781 L 123.976562 131.5625 C 124.769531 130.4375 126.03125 128.496094 126.40625 127.875 C 128.929688 123.679688 127.367188 118.71875 127.199219 118.214844 " fill-opacity="1" fill-rule="nonzero"/></g><path fill="#fbfefe" d="M 118.164062 122.746094 L 85.667969 118.871094 C 83.777344 118.640625 81.335938 119.722656 80.242188 121.28125 L 52.4375 160.820312 C 51.34375 162.378906 51.996094 163.839844 53.886719 164.070312 L 86.378906 167.945312 C 88.269531 168.175781 90.714844 167.09375 91.808594 165.535156 L 119.613281 125.996094 C 120.707031 124.441406 120.054688 122.976562 118.164062 122.746094 " fill-opacity="1" fill-rule="nonzero"/><path fill="#a0e0f4" d="M 115.75 126.015625 C 113.246094 126.386719 110.5625 126.582031 108.148438 127.378906 C 106.902344 127.789062 105.433594 128.355469 104.578125 129.417969 C 103.777344 130.40625 103.664062 131.511719 103.203125 132.644531 C 101.984375 135.648438 99.496094 137.324219 96.445312 138.21875 C 93.402344 139.109375 89.683594 139.289062 87.015625 141.136719 C 85.132812 142.441406 84.546875 144.347656 84.292969 146.542969 C 84.128906 147.996094 83.953125 149.65625 82.832031 150.738281 C 79.53125 153.917969 74.429688 153.566406 70.230469 154.351562 C 65.464844 155.242188 60.09375 156.4375 55.847656 158.867188 C 55.070312 159.316406 53.421875 160.25 52.128906 161.355469 C 51.511719 162.699219 52.210938 163.867188 53.886719 164.070312 L 86.378906 167.945312 C 88.269531 168.175781 90.714844 167.09375 91.808594 165.539062 L 119.613281 125.996094 C 119.753906 125.796875 119.867188 125.59375 119.949219 125.398438 C 118.550781 125.601562 117.148438 125.808594 115.75 126.015625 " fill-opacity="1" fill-rule="nonzero"/><path fill="#a0e0f4" d="M 74.675781 169.234375 L 59.128906 167.347656 C 58.933594 167.324219 58.75 167.464844 58.726562 167.664062 C 58.703125 167.859375 58.84375 168.039062 59.039062 168.0625 L 74.589844 169.945312 C 74.605469 169.949219 74.621094 169.949219 74.632812 169.949219 C 74.8125 169.949219 74.96875 169.816406 74.992188 169.632812 C 75.015625 169.4375 74.875 169.257812 74.675781 169.234375 " fill-opacity="1" fill-rule="nonzero"/><path fill="#a0e0f4" d="M 101.203125 118.664062 C 101.886719 118.519531 102.523438 117.882812 102.632812 117.242188 C 102.734375 116.597656 102.265625 116.199219 101.585938 116.34375 C 100.902344 116.488281 100.261719 117.125 100.15625 117.765625 C 100.050781 118.40625 100.519531 118.808594 101.203125 118.664062 " fill-opacity="1" fill-rule="nonzero"/><path fill="#a0e0f4" d="M 87.316406 115.902344 L 95.738281 116.964844 C 95.753906 116.964844 95.769531 116.96875 95.785156 116.96875 C 95.964844 116.96875 96.121094 116.835938 96.144531 116.652344 C 96.167969 116.457031 96.027344 116.277344 95.832031 116.25 L 87.40625 115.1875 C 87.210938 115.164062 87.027344 115.300781 87.003906 115.5 C 86.980469 115.695312 87.117188 115.875 87.316406 115.902344 " fill-opacity="1" fill-rule="nonzero"/><path fill="#a0e0f4" d="M 108.816406 118.542969 L 119.242188 119.804688 C 119.257812 119.804688 119.273438 119.808594 119.285156 119.808594 C 119.464844 119.808594 119.621094 119.671875 119.644531 119.488281 C 119.667969 119.292969 119.527344 119.113281 119.328125 119.089844 L 108.902344 117.832031 C 108.703125 117.804688 108.527344 117.949219 108.5 118.144531 C 108.476562 118.339844 108.617188 118.519531 108.816406 118.542969 " fill-opacity="1" fill-rule="nonzero"/></svg>