<?xml version="1.0" encoding="utf-8"?>
<svg version="1.1" id="Capa_1" x="0px" y="0px" viewBox="0 0 424.12 424.12" style="enable-background:new 0 0 424.12 424.12;" xmlns="http://www.w3.org/2000/svg">
  <path d="M391.098,327.142c-0.485-0.713-48.461-72.746-48.461-197.777c0-65.567-24.864-90.6-32.884-96.968V5 c0-1.616-0.781-3.134-2.098-4.071c-1.318-0.938-3.005-1.182-4.534-0.655c-58.322,20.134-122.56,20.135-180.882,0 c-1.529-0.527-3.217-0.284-4.534,0.655c-1.316,0.938-2.098,2.455-2.098,4.071v26.455c-6.222,4.479-34.125,28.451-34.125,97.91 c0,65.201-13.172,115.495-24.222,146.205c-11.979,33.293-24.119,51.396-24.238,51.572c-1.413,2.079-1.063,4.883,0.817,6.551 c0.81,0.718,18.883,16.556,38.689,18.583c-2.11,4.398-4.344,8.513-6.718,12.277c-0.739,1.173-0.959,2.601-0.605,3.94 c0.353,1.341,1.248,2.476,2.469,3.131c1.119,0.602,25.675,13.676,45.714,15.676c-1.271,2.931-2.583,5.703-3.937,8.298 c-0.693,1.328-0.754,2.898-0.165,4.276c0.589,1.379,1.765,2.42,3.205,2.838c1.32,0.383,31.21,8.967,58.496,9.778l-0.028,0.467 c-0.138,2.266,1.269,4.34,3.424,5.051c12.351,4.075,25.323,6.112,38.301,6.111c12.974,0,25.953-2.037,38.301-6.111 c2.155-0.711,3.562-2.785,3.425-5.051l-0.031-0.504c26.941-1.029,55.948-9.364,57.247-9.741c1.439-0.418,2.615-1.459,3.204-2.838 c0.589-1.378,0.528-2.948-0.165-4.276c-1.354-2.595-2.666-5.367-3.937-8.298c20.039-2,44.596-15.075,45.715-15.677 c1.222-0.655,2.115-1.79,2.469-3.13c0.354-1.341,0.134-2.769-0.605-3.941c-2.374-3.764-4.607-7.879-6.718-12.277 c19.807-2.027,37.88-17.865,38.689-18.583C392.161,332.026,392.51,329.221,391.098,327.142z M299.754,11.925v19.4 c-56.284,18.366-117.785,18.507-174.146,0.409V11.925C182.031,29.855,243.332,29.855,299.754,11.925z M43.761,328.841 c4.284-7.125,13.497-23.824,22.762-49.479c11.386-31.529,24.959-83.146,24.959-149.998c0-60.436,22.329-83.46,28.778-88.846 c4.439,1.466,8.913,2.809,13.411,4.056c-6.405,12.248-22.088,46.452-24.777,92.169l-0.162,2.748 c-2.888,49.227-8.512,145.063-31.895,202.996C63.744,342.451,49.847,333.439,43.761,328.841z M77.092,365.16 c31.704-56.047,38.373-169.67,41.624-225.083l0.161-2.746c2.733-46.459,19.927-81.215,24.772-90.175 c5.552,1.329,11.138,2.496,16.752,3.495c-4.265,14.103-14.699,53.595-13.646,99.435c1.169,50.858-6.785,165.25-29.496,227.461 C103.712,377.161,85.543,369.222,77.092,365.16z M121.055,394.646c14.991-32.431,23.611-82.753,28.265-120.287 c6.41-51.69,8.009-99.375,7.432-124.503c-1.044-45.46,9.922-85.456,13.635-97.606c7.407,1.057,14.851,1.826,22.312,2.315 l-21.106,347.943C152.351,401.973,131.052,397.171,121.055,394.646z M181.178,409.651l21.51-354.601 c6.662,0.211,13.331,0.203,19.992-0.037l21.511,354.637C223.732,415.617,201.636,415.617,181.178,409.651z M253.774,402.466 L232.667,54.479c7.044-0.493,14.072-1.231,21.066-2.229c3.713,12.151,14.679,52.146,13.635,97.606 c-0.577,25.129,1.023,72.813,7.433,124.503c4.653,37.534,13.273,87.856,28.264,120.287 C293.283,397.117,272.683,401.765,253.774,402.466z M306.861,377.547c-22.709-62.21-30.663-176.603-29.495-227.461 c1.053-45.839-9.381-85.331-13.646-99.434c5.615-1,11.203-2.167,16.756-3.496c4.844,8.936,22.027,43.597,24.767,90.175l0.162,2.759 c3.252,55.415,9.918,169.033,41.625,225.072C338.585,369.225,320.431,377.162,306.861,377.547z M347.282,342.487 c-23.38-57.928-29.006-153.759-31.895-202.982l-0.162-2.762c-2.689-45.717-18.371-79.922-24.776-92.169 c4.502-1.248,8.98-2.592,13.424-4.061c2.678,2.212,8.07,7.404,13.42,16.93c12.683,22.579,15.345,51.573,15.345,71.921 c0,66.853,13.573,118.469,24.96,149.998c9.267,25.66,18.482,42.362,22.766,49.484C374.29,333.446,360.425,342.451,347.282,342.487z" style="filter: none; fill: rgb(56, 56, 56);"/>
  <g/>
  <g/>
  <g/>
  <g/>
  <g/>
  <g/>
  <g/>
  <g/>
  <g/>
  <g/>
  <g/>
  <g/>
  <g/>
  <g/>
  <g/>
  <path style="fill: rgb(216, 216, 216); stroke: rgb(0, 0, 0);" d="M 208.391 233.829 L 208.391 233.829 L 208.391 233.829 Z"/>
  <path style="fill: rgb(216, 216, 216); stroke: rgb(0, 0, 0);" d="M 194.449 256.575 L 194.449 256.575"/>
  <circle style="fill: rgb(255, 223, 0);" cx="212.06" cy="363.38" r="9.833"/>
  <circle style="fill: rgb(255, 223, 0);" cx="155.56" cy="350.906" r="6.961"/>
  <circle style="fill: rgb(255, 223, 0);" cx="108.598" cy="328.893" r="7.227"/>
  <circle style="fill: rgb(255, 223, 0);" cx="71.176" cy="301.743" r="5.916"/>
  <circle style="fill: rgb(255, 223, 0);" cx="266.359" cy="347.971" r="8.366"/>
  <circle style="fill: rgb(255, 223, 0);" cx="311.119" cy="328.893" r="7.338"/>
  <circle style="fill: rgb(255, 223, 0);" cx="347.074" cy="304.678" r="7.937"/>
</svg>