<?xml version="1.0" encoding="utf-8"?>
<svg version="1.1" id="Capa_1" x="0px" y="0px" viewBox="0 0 426.922 426.922" style="enable-background:new 0 0 426.922 426.922;" xmlns="http://www.w3.org/2000/svg" xmlns:bx="https://boxy-svg.com">
  <defs>
    <filter id="drop-shadow-filter-0" x="-500%" y="-500%" width="1000%" height="1000%" bx:preset="drop-shadow 1 10 10 20 0.5 rgba(255,255,255,1)">
      <feGaussianBlur in="SourceAlpha" stdDeviation="20"/>
      <feOffset dx="10" dy="10"/>
      <feComponentTransfer result="offsetblur">
        <feFuncA id="spread-ctrl" type="linear" slope="1"/>
      </feComponentTransfer>
      <feFlood flood-color="rgba(255,255,255,1)" x="10" y="10"/>
      <feComposite in2="offsetblur" operator="in"/>
      <feMerge>
        <feMergeNode/>
        <feMergeNode in="SourceGraphic"/>
      </feMerge>
    </filter>
  </defs>
  <path id="XMLID_1081_" d="M 170.265 113.315 C 170.265 108.344 174.294 104.315 179.265 104.315 L 293.676 104.315 C 298.647 104.315 302.676 108.344 302.676 113.315 C 302.676 118.286 298.647 122.315 293.676 122.315 L 179.265 122.315 C 174.295 122.315 170.265 118.286 170.265 113.315 Z M 179.265 81.665 L 293.676 81.665 C 298.647 81.665 302.676 77.636 302.676 72.665 C 302.676 67.694 298.647 63.665 293.676 63.665 L 179.265 63.665 C 174.294 63.665 170.265 67.694 170.265 72.665 C 170.265 77.636 174.295 81.665 179.265 81.665 Z M 326.574 392.108 C 329.38 394.584 330.361 398.539 329.037 402.04 C 327.714 405.54 324.361 407.857 320.619 407.857 L 309.157 407.857 L 309.157 417.922 C 309.157 422.893 305.128 426.922 300.157 426.922 C 295.186 426.922 291.157 422.893 291.157 417.922 L 291.157 407.857 L 273.721 407.857 L 273.721 417.922 C 273.721 422.893 269.692 426.922 264.721 426.922 C 259.75 426.922 255.721 422.893 255.721 417.922 L 255.721 407.857 L 238.284 407.857 L 238.284 417.922 C 238.284 422.893 234.255 426.922 229.284 426.922 C 224.313 426.922 220.284 422.893 220.284 417.922 L 220.284 407.857 L 202.846 407.857 L 202.846 417.922 C 202.846 422.893 198.817 426.922 193.846 426.922 C 188.875 426.922 184.846 422.893 184.846 417.922 L 184.846 407.857 L 167.41 407.857 L 167.41 417.922 C 167.41 422.893 163.381 426.922 158.41 426.922 C 153.439 426.922 149.41 422.893 149.41 417.922 L 149.41 407.857 L 131.974 407.857 L 131.974 417.922 C 131.974 422.893 127.945 426.922 122.974 426.922 C 118.003 426.922 113.974 422.893 113.974 417.922 L 113.974 407.857 L 106.478 407.857 C 104.286 407.857 102.167 407.056 100.523 405.606 C 50.693 361.638 74.653 284.791 97.823 210.475 C 108.812 175.23 120.175 138.786 122.926 107.545 C 125.878 74.019 118.76 50.909 100.524 34.817 C 97.718 32.341 96.737 28.386 98.061 24.886 C 99.384 21.386 102.737 19.069 106.479 19.069 L 116.387 19.069 L 116.387 9 C 116.387 4.029 120.416 0 125.387 0 C 130.358 0 134.387 4.029 134.387 9 L 134.387 19.068 L 151.825 19.068 L 151.825 9 C 151.825 4.029 155.854 0 160.825 0 C 165.796 0 169.825 4.029 169.825 9 L 169.825 19.068 L 187.262 19.068 L 187.262 9 C 187.262 4.029 191.291 0 196.262 0 C 201.233 0 205.262 4.029 205.262 9 L 205.262 19.068 L 222.7 19.068 L 222.7 9 C 222.7 4.029 226.729 0 231.7 0 C 236.671 0 240.7 4.029 240.7 9 L 240.7 19.068 L 258.136 19.068 L 258.136 9 C 258.136 4.029 262.165 0 267.136 0 C 272.107 0 276.136 4.029 276.136 9 L 276.136 19.068 L 293.574 19.068 L 293.574 9 C 293.574 4.029 297.603 0 302.574 0 C 307.545 0 311.574 4.029 311.574 9 L 311.574 19.068 L 320.622 19.068 C 322.815 19.068 324.933 19.869 326.577 21.319 C 376.155 65.069 352.26 141.711 329.151 215.83 C 318.136 251.156 306.748 287.684 304.002 319.034 C 301.05 352.698 308.224 375.917 326.574 392.108 Z M 300.737 389.856 C 270.123 344.668 291.355 276.57 311.964 210.473 C 322.952 175.228 334.316 138.784 337.067 107.543 C 339.883 75.55 333.531 53.043 317.096 37.068 L 126.337 37.068 C 156.713 82.065 135.55 149.945 115.008 215.831 C 103.994 251.157 92.605 287.685 89.86 319.035 C 87.046 351.167 93.454 373.785 110.001 389.856 L 300.158 389.856 L 300.737 389.856 Z M 246.376 345.256 L 131.965 345.256 C 126.994 345.256 122.965 349.285 122.965 354.256 C 122.965 359.227 126.994 363.256 131.965 363.256 L 232.968 363.256 L 246.376 363.256 C 251.347 363.256 255.376 359.227 255.376 354.256 C 255.376 349.285 251.346 345.256 246.376 345.256 Z M 246.376 304.605 L 131.965 304.605 C 126.994 304.605 122.965 308.634 122.965 313.605 C 122.965 318.576 126.994 322.605 131.965 322.605 L 246.376 322.605 C 251.347 322.605 255.376 318.576 255.376 313.605 C 255.376 308.634 251.346 304.605 246.376 304.605 Z" style="filter: url(#drop-shadow-filter-0); fill: rgb(56, 56, 56);"/>
  <g/>
  <g/>
  <g/>
  <g/>
  <g/>
  <g/>
  <g/>
  <g/>
  <g/>
  <g/>
  <g/>
  <g/>
  <g/>
  <g/>
  <g/>
  <rect x="128.319" y="321.2" width="118.634" height="24.211" style="fill: rgb(255, 223, 0);"/>
  <rect x="178.355" y="81.511" width="117.02" height="23.404" style="fill: rgb(255, 223, 0);"/>
</svg>