<?xml version="1.0" encoding="utf-8"?>
<svg height="512pt" viewBox="0 -8 512.00156 512" width="512pt" xmlns="http://www.w3.org/2000/svg" xmlns:bx="https://boxy-svg.com">
  <defs>
    <filter id="drop-shadow-filter-0" x="-500%" y="-500%" width="1000%" height="1000%" bx:preset="drop-shadow 1 10 10 20 0.5 rgba(255,255,255,1)">
      <feGaussianBlur in="SourceAlpha" stdDeviation="20"/>
      <feOffset dx="10" dy="10"/>
      <feComponentTransfer result="offsetblur">
        <feFuncA id="spread-ctrl" type="linear" slope="1"/>
      </feComponentTransfer>
      <feFlood flood-color="rgba(255,255,255,1)" x="10" y="10"/>
      <feComposite in2="offsetblur" operator="in"/>
      <feMerge>
        <feMergeNode/>
        <feMergeNode in="SourceGraphic"/>
      </feMerge>
    </filter>
  </defs>
  <path d="M 19.391 98.336 C 19.391 102.063 18.707 105.57 17.711 109.152 C 16.352 114.02 14.664 120.074 14.664 132.781 C 14.664 147.355 25.086 155.188 33.461 161.48 C 42.5 168.273 45.594 173.152 43.523 184.703 C 42.074 192.797 40.43 201.969 46.43 210.457 C 51.809 218.066 61.965 223.059 78.98 226.391 C 87.703 272.074 81.953 324.004 76.387 374.285 C 73.793 397.691 71.113 421.898 69.879 445.383 C 68.891 464.109 82.098 480.715 100.598 484.012 C 125.074 488.387 166.242 493.938 223.363 495.535 C 245.117 496.145 266.891 496.156 288.641 495.535 C 345.762 493.938 386.926 488.387 411.402 484.016 C 429.902 480.719 443.113 464.109 442.125 445.383 C 441.156 426.918 439.309 408.375 437.629 392.668 C 437.188 388.551 433.484 385.574 429.375 386.008 C 425.254 386.449 422.273 390.145 422.715 394.262 C 424.371 409.77 426.195 428.063 427.145 446.172 C 427.734 457.355 419.836 467.277 408.766 469.246 C 385.902 473.332 348.121 478.469 295.926 480.301 L 295.926 73.23 C 321.414 63.305 339.82 44.438 345.648 21.957 C 346.789 17.547 350.801 14.633 355.172 15.039 C 370.734 16.461 394.625 20.031 422.617 28.918 C 417.621 47.844 405.039 101.293 406.598 154.051 C 407.266 176.676 410.309 199.555 418.863 220.648 C 409.762 265.063 413.926 313.941 419.426 364.277 C 419.875 368.395 423.57 371.367 427.695 370.918 C 431.813 370.469 434.785 366.766 434.336 362.648 C 429.09 314.598 425.074 267.996 433.023 226.391 C 450.039 223.055 460.195 218.066 465.574 210.457 C 471.574 201.969 469.93 192.793 468.477 184.703 C 467.863 181.266 467.281 178.023 467.281 174.996 C 467.281 170.184 471.559 166.727 478.539 161.484 C 486.914 155.191 497.34 147.355 497.34 132.777 C 497.34 120.074 495.652 114.02 494.293 109.152 C 493.316 105.656 492.613 103.129 492.613 98.328 C 492.613 96.027 494.594 93.707 498.094 89.809 C 504.508 82.668 513.293 72.887 511.844 53.523 C 510.727 38.664 496.309 27.93 468.984 21.613 C 452.969 17.914 437.383 16.828 433.16 16.59 C 401.32 5.848 373.957 1.691 356.539 0.102 C 344.824 -0.965 334.125 6.641 331.129 18.191 C 326.199 37.203 309.355 53.148 286.074 60.836 C 266.805 67.199 245.199 67.203 225.93 60.836 C 202.648 53.145 185.805 37.203 180.875 18.188 C 177.879 6.637 167.199 -0.965 155.465 0.102 C 138.047 1.691 110.684 5.848 78.844 16.59 C 74.625 16.828 59.039 17.914 43.02 21.613 C 15.691 27.93 1.273 38.664 0.16 53.523 C -1.293 72.887 7.492 82.668 13.906 89.809 C 17.41 93.707 19.391 96.027 19.391 98.336 L 19.391 98.336 Z M 437.375 31.883 C 462.75 33.867 495.918 41.781 496.883 54.645 C 497.855 67.625 492.551 73.531 486.934 79.785 C 477.613 90.164 476.137 99.906 479.844 113.184 C 481.07 117.582 482.34 122.129 482.34 132.781 C 482.34 139.523 477.469 143.523 469.527 149.492 C 461.844 155.262 452.281 162.449 452.281 174.996 C 452.281 179.355 453.008 183.418 453.711 187.348 C 454.945 194.223 455.586 198.598 453.324 201.797 C 451.336 204.613 445.867 208.422 431.383 211.426 C 425.195 194.52 421.906 173.508 421.57 149.195 C 421.57 149.051 421.566 148.906 421.566 148.766 C 421.164 109.5 427.438 69.816 437.375 31.883 Z M 156.828 15.039 C 161.207 14.633 165.211 17.547 166.355 21.953 C 172.184 44.438 190.59 63.305 216.078 73.23 L 216.078 142.465 C 216.078 146.609 219.434 211.908 223.578 211.908 C 227.719 211.908 231.078 146.609 231.078 142.465 L 231.078 77.816 C 239.129 79.645 247.477 80.566 256 80.566 C 264.523 80.566 272.871 79.645 280.926 77.816 L 280.926 480.723 C 264.496 481.082 247.508 481.082 231.078 480.723 L 231.078 172.465 C 231.078 168.324 227.719 164.965 223.578 164.965 C 219.434 164.965 216.078 168.324 216.078 172.465 L 216.078 480.297 C 163.883 478.465 126.102 473.332 103.234 469.242 C 92.168 467.273 84.266 457.352 84.855 446.168 C 86.07 423.117 88.727 399.129 91.293 375.934 C 97.102 323.496 103.105 269.293 93.141 220.652 C 94.426 217.484 95.582 214.254 96.625 211 C 106.164 181.285 106.699 149.41 104.48 118.551 C 102.32 88.508 96.992 58.191 89.43 28.902 C 117.398 20.027 141.277 16.461 156.828 15.039 L 156.828 15.039 Z M 15.117 54.645 C 16.082 41.809 49.25 33.887 74.625 31.887 C 78.918 48.277 90.543 97.215 90.453 146.078 C 90.379 168.063 88.223 190.648 80.621 211.426 C 66.133 208.426 60.668 204.613 58.676 201.797 C 56.414 198.598 57.055 194.223 58.289 187.348 C 61.438 169.797 56.492 160.023 42.477 149.492 C 36.688 145.145 30.617 140.887 29.656 133.199 C 28.852 126.723 30.418 119.414 32.156 113.188 C 35.906 99.738 34.406 90.191 25.066 79.785 C 19.449 73.531 14.145 67.625 15.117 54.645 L 15.117 54.645 Z M 15.117 54.645" style="filter: url(#drop-shadow-filter-0); fill: rgb(56, 56, 56);"/>
  <rect x="231.319" y="79.108" width="49.361" height="402.631" style="fill: rgb(255, 223, 0);"/>
</svg>