<?xml version="1.0" encoding="utf-8"?>
<svg version="1.1" id="Layer_1" x="0px" y="0px" viewBox="0 0 512 512" style="enable-background:new 0 0 512 512;" xmlns="http://www.w3.org/2000/svg" xmlns:bx="https://boxy-svg.com">
  <defs>
    <filter id="drop-shadow-filter-0" x="-500%" y="-500%" width="1000%" height="1000%" bx:preset="drop-shadow 1 10 10 20 0.5 rgba(255,255,255,1)">
      <feGaussianBlur in="SourceAlpha" stdDeviation="20"/>
      <feOffset dx="10" dy="10"/>
      <feComponentTransfer result="offsetblur">
        <feFuncA id="spread-ctrl" type="linear" slope="1"/>
      </feComponentTransfer>
      <feFlood flood-color="rgba(255,255,255,1)" x="10" y="10"/>
      <feComposite in2="offsetblur" operator="in"/>
      <feMerge>
        <feMergeNode/>
        <feMergeNode in="SourceGraphic"/>
      </feMerge>
    </filter>
    <filter id="drop-shadow-filter-1" x="-500%" y="-500%" width="1000%" height="1000%" bx:preset="drop-shadow 1 10 10 0 0.5 rgba(0,0,0,0.3)">
      <feGaussianBlur in="SourceAlpha" stdDeviation="0"/>
      <feOffset dx="10" dy="10"/>
      <feComponentTransfer result="offsetblur">
        <feFuncA id="spread-ctrl" type="linear" slope="1"/>
      </feComponentTransfer>
      <feFlood flood-color="rgba(0,0,0,0.3)" x="10" y="10"/>
      <feComposite in2="offsetblur" operator="in"/>
      <feMerge>
        <feMergeNode/>
        <feMergeNode in="SourceGraphic"/>
      </feMerge>
    </filter>
    <filter id="drop-shadow-filter-2" x="-500%" y="-500%" width="1000%" height="1000%" bx:preset="drop-shadow 1 10 10 0 0.5 rgba(255,223,0,1)">
      <feGaussianBlur in="SourceAlpha" stdDeviation="0"/>
      <feOffset dx="10" dy="10"/>
      <feComponentTransfer result="offsetblur">
        <feFuncA id="spread-ctrl" type="linear" slope="1"/>
      </feComponentTransfer>
      <feFlood flood-color="rgba(255,223,0,1)" x="10" y="10"/>
      <feComposite in2="offsetblur" operator="in"/>
      <feMerge>
        <feMergeNode/>
        <feMergeNode in="SourceGraphic"/>
      </feMerge>
    </filter>
  </defs>
  <g transform="translate(1 1)">
    <g>
      <path style="fill:#FFE100;" d="M208.067,314.733c-5.12,0-8.533-3.413-8.533-8.533c0-9.387-7.68-17.067-17.067-17.067 c-23.893,0-42.667-18.773-42.667-42.667S121.027,203.8,97.133,203.8s-42.667,18.773-42.667,42.667s18.773,42.667,42.667,42.667 c5.12,0,8.533,3.413,8.533,8.533s-3.413,8.533-8.533,8.533c-33.28,0-59.733-26.453-59.733-59.733s26.453-59.733,59.733-59.733 s59.733,26.453,59.733,59.733c0,14.507,11.093,25.6,25.6,25.6c18.773,0,34.133,15.36,34.133,34.133 C216.6,311.32,213.187,314.733,208.067,314.733z"/>
      <path style="fill: rgb(255, 255, 255);" d="M417.987,36.547l-64.853,56.32h-153.6l-64.853-56.32c-2.56-1.707-3.413-5.12-3.413-8.533v-9.387 c0-5.973,5.12-11.093,11.093-11.093h267.947c5.973,0,11.093,5.12,11.093,11.093v9.387C421.4,31.427,419.693,33.987,417.987,36.547 "/>
    </g>
    <path style="fill: rgb(255, 255, 255);" d="M444.44,7.533h-34.133c5.973,0,11.093,5.12,11.093,11.093v9.387c0,3.413-1.707,5.973-3.413,8.533 l-64.853,56.32h34.133l64.853-56.32c2.56-1.707,3.413-5.12,3.413-8.533v-9.387C455.533,12.653,450.413,7.533,444.44,7.533"/>
    <path style="fill: rgb(255, 255, 255);" d="M134.68,473.453l64.853-56.32h162.133l64.853,56.32c2.56,1.707,3.413,5.12,3.413,8.533v9.387 c0,5.973-5.12,11.093-11.093,11.093H142.36c-5.973,0-11.093-5.12-11.093-11.093v-9.387 C131.267,478.573,132.973,476.013,134.68,473.453"/>
    <path style="fill: rgb(255, 255, 255);" d="M444.44,502.467h-34.133c5.973,0,11.093-5.12,11.093-11.093v-9.387c0-3.413-1.707-5.973-3.413-8.533 l-64.853-56.32h34.133l64.853,56.32c2.56,1.707,3.413,5.12,3.413,8.533v9.387C455.533,497.347,450.413,502.467,444.44,502.467"/>
    <path style="fill: rgb(255, 255, 255);" d="M 199.533 417.133 L 361.666 417.133 L 361.666 92.867 L 329.999 92.867 L 199.533 92.867 L 199.533 417.133 Z"/>
    <path style="fill: rgb(255, 255, 255);" d="M361.667,417.133h25.6V92.867h-25.6V417.133z"/>
    <g>
      <path style="fill:#FFFFFF;" d="M142.36,7.533h34.133c-5.973,0-11.093,5.12-11.093,11.093v9.387c0,3.413,1.707,5.973,3.413,8.533 l64.853,56.32h-34.133l-64.853-56.32c-2.56-1.707-3.413-5.12-3.413-8.533v-9.387C131.267,12.653,136.387,7.533,142.36,7.533"/>
      <path style="fill:#FFFFFF;" d="M142.36,502.467h34.133c-5.973,0-11.093-5.12-11.093-11.093v-9.387 c0-3.413,1.707-5.973,3.413-8.533l64.853-56.32h-34.133l-64.853,56.32c-2.56,1.707-3.413,5.12-3.413,8.533v9.387 C131.267,497.347,136.387,502.467,142.36,502.467"/>
      <path style="fill:#FFFFFF;" d="M199.533,417.133h25.6V92.867h-25.6V417.133z"/>
    </g>
    <g>
      <path style="fill: rgb(255, 255, 255);" d="M470.04,7.533h-34.133c5.973,0,11.093,5.12,11.093,11.093v9.387c0,3.413-1.707,5.973-3.413,8.533 l-64.853,56.32h34.133l64.853-56.32c2.56-1.707,3.413-5.12,3.413-8.533v-9.387C481.133,12.653,476.013,7.533,470.04,7.533"/>
      <path style="fill: rgb(255, 255, 255);" d="M470.04,502.467h-34.133c5.973,0,11.093-5.12,11.093-11.093v-9.387 c0-3.413-1.707-5.973-3.413-8.533l-64.853-56.32h34.133l64.853,56.32c2.56,1.707,3.413,5.12,3.413,8.533v9.387 C481.133,497.347,476.013,502.467,470.04,502.467"/>
    </g>
    <path d="M390.68,101.4H196.12l-66.56-58.88c-4.267-3.413-6.827-8.533-6.827-14.507v-9.387C122.733,7.533,131.267-1,142.36-1h302.08 c11.093,0,19.627,8.533,19.627,19.627v9.387c0,5.973-2.56,11.093-6.827,14.507l0,0L390.68,101.4z M202.947,84.333h180.907 l62.293-54.613c0.853,0,0.853-0.853,0.853-1.707v-9.387c0-1.707-0.853-2.56-2.56-2.56H142.36c-1.707,0-2.56,0.853-2.56,2.56v9.387 c0,0.853,0,1.707,0.853,1.707L202.947,84.333z" style="fill: rgb(56, 56, 56);"/>
    <path d="M444.44,511H142.36c-11.093,0-19.627-8.533-19.627-19.627v-9.387c0-5.973,2.56-11.093,6.827-14.507l66.56-58.88h194.56 l66.56,58.88c4.267,3.413,6.827,9.387,6.827,14.507v9.387C464.067,502.467,455.533,511,444.44,511z M202.947,425.667 l-62.293,54.613c-0.853,0-0.853,0.853-0.853,1.707v9.387c0,1.707,0.853,2.56,2.56,2.56h302.08c1.707,0,2.56-0.853,2.56-2.56v-9.387 c0-0.853,0-1.707-0.853-1.707l-62.293-54.613H202.947z" style="fill: rgb(56, 56, 56);"/>
    <path d="M395.8,425.667H191V84.333h204.8V425.667z M208.067,408.6h170.667V101.4H208.067V408.6z" style="filter: url(#drop-shadow-filter-0); fill: rgb(56, 56, 56);"/>
    <rect x="187.599" y="122.688" transform="matrix(-0.8222 0.5693 -0.5693 -0.8222 539.3796 93.9337)" width="134.834" height="17.068" style="fill: rgb(56, 56, 56); filter: none;"/>
    <rect x="186.657" y="314.509" transform="matrix(-0.8778 0.479 -0.479 -0.8778 706.3442 465.9041)" width="214.184" height="17.066" style="fill: rgb(56, 56, 56); filter: url(#drop-shadow-filter-1);"/>
    <rect x="284.87" y="149.173" transform="matrix(-0.2631 0.9648 -0.9648 -0.2631 608.3695 28.2301)" width="17.067" height="194.566" style="fill: rgb(56, 56, 56);"/>
    <rect x="182.407" y="152.378" transform="matrix(-0.8436 0.537 -0.537 -0.8436 627.9958 138.9023)" width="222.723" height="17.067" style="fill: rgb(56, 56, 56);"/>
    <rect x="248.954" y="190.793" transform="matrix(-0.8574 0.5146 -0.5146 -0.8574 703.6725 203.6935)" width="149.329" height="17.066" style="fill: rgb(56, 56, 56);"/>
    <rect x="313.019" y="225.139" transform="matrix(-0.8479 0.5301 -0.5301 -0.8479 776.4208 244.612)" width="80.211" height="17.066" style="fill: rgb(56, 56, 56);"/>
    <rect x="252.541" y="220.56" transform="matrix(-0.3405 0.9403 -0.9403 -0.3405 619.1316 138.264)" width="17.068" height="131.42" style="fill: rgb(56, 56, 56);"/>
    <rect x="224.705" y="291.113" transform="matrix(-0.3511 0.9363 -0.9363 -0.3511 621.6653 223.9362)" width="17.066" height="72.531" style="fill: rgb(56, 56, 56);"/>
    <rect x="222.58" y="365.901" transform="matrix(-0.874 0.4859 -0.4859 -0.874 763.7691 550.8333)" width="175.784" height="17.066" style="fill: rgb(56, 56, 56);"/>
    <path d="M199.533,314.733c-5.12,0-8.533-3.413-8.533-8.533c0-9.387-7.68-17.067-17.067-17.067 c-23.893,0-42.667-18.773-42.667-42.667S112.493,203.8,88.6,203.8s-42.667,18.773-42.667,42.667s18.773,42.667,42.667,42.667 c5.12,0,8.533,3.413,8.533,8.533S93.72,306.2,88.6,306.2c-33.28,0-59.733-26.453-59.733-59.733S55.32,186.733,88.6,186.733 s59.733,26.453,59.733,59.733c0,14.507,11.093,25.6,25.6,25.6c18.773,0,34.133,15.36,34.133,34.133 C208.067,311.32,204.653,314.733,199.533,314.733z" style="fill: rgb(56, 56, 56); filter: url(#drop-shadow-filter-2);"/>
  </g>
  <g/>
  <g/>
  <g/>
  <g/>
  <g/>
  <g/>
  <g/>
  <g/>
  <g/>
  <g/>
  <g/>
  <g/>
  <g/>
  <g/>
  <g/>
  <rect x="395.856" y="96.786" width="7.743" height="318.427" style="fill: rgb(255, 223, 0);"/>
</svg>